OpenSim_Sub01_CSBaseline_LCS.mot
version=1
nRows=77
nColumns=11
inDegrees=no
endheader
time	Bot_Shank	2nd_Bot_Shank	2nd_Top_Shank	Top_Shank	Bot_Thigh	Med_Thigh	Top_Thigh	BNOx	BNOy	BNOZ
14.87000000	9162.21029029	9834.79332980	10412.39730557	10361.10512850	13270.87231453	14401.57461809	15203.01912676	182.36456732	-75.51224567	-47.97675867
14.88000000	9157.57933012	9829.65340007	10408.73455692	10353.43354263	13272.74461985	14387.43055787	15203.16368855	181.40463287	-75.80137332	-102.26612586
14.89000000	9153.79378333	9825.65332096	10405.54284916	10343.82310881	13273.82975354	14372.26328329	15199.86941684	180.50210538	-76.08503723	-149.02209521
14.90000000	9151.02239488	9823.25949512	10403.16744843	10331.97667099	13273.88501361	14356.85882597	15192.57068354	179.68488157	-76.35697950	-184.34164214
14.91000000	9149.28921096	9822.41737161	10401.72512191	10317.83860110	13272.85715209	14341.88778944	15181.34782560	178.95742668	-76.61184843	-206.75027400
14.92000000	9148.43030908	9822.39566227	10401.03580853	10301.66702436	13270.93902854	14327.87083210	15167.12031134	178.29376761	-76.84546953	-217.92824706
14.93000000	9148.26920445	9822.41785146	10400.89960970	10283.74103465	13268.33995026	14315.31859126	15150.86368965	177.66589699	-77.05374697	-219.76665474
14.94000000	9148.62941228	9821.70742356	10401.11662680	10264.33972586	13265.26922457	14304.74170424	15133.55350944	177.04580748	-77.23258494	-214.15659049
14.95000000	9149.33444779	9819.48786292	10401.48696124	10243.74219187	13261.93615880	14296.65080835	15116.16531958	176.40549172	-77.37788762	-202.98914774
14.96000000	9150.20782619	9814.98265393	10401.81071442	10222.22752657	13258.55006026	14291.55654090	15099.67466898	175.71694236	-77.48555918	-188.15541992
14.97000000	9151.07306271	9807.41528093	10401.88798773	10200.07482385	13255.32023626	14289.96953920	15085.05710653	174.95215204	-77.55150380	-171.54650048
14.98000000	9151.75367256	9796.00922830	10401.51888258	10177.56317760	13252.45599414	14292.40044058	15073.28818112	174.08311342	-77.57162566	-155.05348284
14.99000000	9152.07503468	9780.00836312	10400.50704051	10154.97057262	13250.16451741	14299.34469386	15065.32319447	173.08240217	-77.54178140	-140.54345059
15.00000000	9151.93498010	9759.44893022	10398.79372698	10132.53187868	13248.57042775	14310.70729595	15061.33033887	171.94525938	-77.45597914	-128.95010378
15.01000000	9151.32545773	9735.39650118	10396.49898569	10110.42595756	13247.69109598	14325.62622576	15060.45532370	170.69636930	-77.30582570	-119.99464429
15.02000000	9150.24470652	9708.98543925	10393.75480841	10088.82792791	13247.53672519	14343.18820114	15061.77552408	169.36238393	-77.08276746	-113.31724070
15.03000000	9148.69096542	9681.35010765	10390.69318689	10067.91290840	13248.11751847	14362.47993991	15064.36831511	167.96995525	-76.77825077	-108.55806160
15.04000000	9146.66247338	9653.62486960	10387.44611292	10047.85601770	13249.44367891	14382.58815990	15067.31107191	166.54573526	-76.38372200	-105.35727556
15.05000000	9144.15746935	9626.94408834	10384.14557824	10028.83237448	13251.52540958	14402.59957895	15069.68116960	165.11637594	-75.89062749	-103.35505117
15.06000000	9141.17419228	9602.44212709	10380.92357464	10011.01709739	13254.37291358	14421.60091487	15070.55598328	163.70852929	-75.29041362	-102.19155702
15.07000000	9137.71088113	9581.25334907	10377.91209387	9994.58530510	13257.99639399	14438.67888550	15069.01288806	162.34884729	-74.57452673	-101.50696167
15.08000000	9133.76675741	9564.50408232	10375.24258369	9979.71415744	13262.40690626	14452.92644967	15064.13820848	161.06382065	-73.73456471	-100.94298608
15.09000000	9129.41706415	9552.69896792	10373.00440268	9966.73873958	13267.68145326	14463.91943363	15055.71068806	159.86746101	-72.77384763	-100.26145731
15.10000000	9124.86590616	9545.28884449	10371.21556524	9956.26183115	13274.00882331	14472.05215753	15044.68276859	158.75262719	-71.71556558	-99.42779070
15.11000000	9120.32987045	9541.62247375	10369.88717503	9948.91214203	13281.58863289	14477.79822513	15032.12058251	157.71012901	-70.58483333	-98.42712223
15.12000000	9116.02554406	9541.04861742	10369.03033570	9945.31838216	13290.62049843	14481.63124023	15019.09026223	156.73077629	-69.40676569	-97.24458786
15.13000000	9112.16951399	9542.91603723	10368.65615089	9946.10926144	13301.30403642	14484.02480658	15006.65794020	155.80537887	-68.20647742	-95.86532356
15.14000000	9108.97836729	9546.57349490	10368.77572425	9951.91348977	13313.83886330	14485.45252798	14995.88974883	154.92474657	-67.00908333	-94.27446531
15.15000000	9106.66869096	9551.36975215	10369.40015944	9963.35977707	13328.42459555	14486.38800820	14987.85182056	154.07968922	-65.83969819	-92.45714907
15.16000000	9105.45707204	9556.65357071	10370.54056010	9981.07683325	13345.26084961	14487.30485102	14983.61028781	153.26101664	-64.72343680	-90.39851080
15.17000000	9105.56009755	9561.77371230	10372.20802988	10005.69336822	13364.54724195	14488.67666021	14984.23128301	152.45953866	-63.68541393	-88.08368649
15.18000000	9107.19435452	9566.07893864	10374.41367242	10037.83809190	13386.48338903	14490.97703955	14990.78093858	151.66606511	-62.75074439	-85.49781211
15.19000000	9110.56868745	9568.93119081	10377.16644512	10078.10197846	13411.24421510	14494.66400689	15004.28547033	150.87220984	-61.94483515	-82.63038229
15.20000000	9115.59095071	9570.20475718	10380.39186913	10125.60902588	13438.04473485	14499.58967681	15024.21933488	150.10084296	-61.30445281	-79.64033538
15.21000000	9121.77800181	9570.43948339	10383.90707901	10177.57757815	13464.85300645	14504.81907418	15048.04119885	149.41543758	-60.88112046	-76.90672305
15.22000000	9128.62056728	9570.21969539	10387.52196565	10231.09862117	13489.55375190	14509.36462130	15073.07501020	148.88218037	-60.72734740	-74.82330751
15.23000000	9135.60937364	9570.12971913	10391.04641998	10283.26314086	13510.03169318	14512.23874050	15096.64471691	148.56725801	-60.89564294	-73.78385098
15.24000000	9142.23514744	9570.75388056	10394.29033287	10331.16212315	13524.17155229	14512.45385409	15116.07426694	148.53685718	-61.43851636	-74.18211569
15.25000000	9147.98861520	9572.67650563	10397.06359524	10371.88655395	13529.85805121	14509.02238440	15128.68760826	148.85716456	-62.40847697	-76.41186384
15.26000000	9152.36064326	9576.48169809	10399.17615158	10402.52827129	13524.97663804	14500.95706794	15131.80956014	149.59433901	-63.85800046	-80.86657146
15.27000000	9155.02762628	9582.45870592	10400.50907547	10421.30987204	13508.37631176	14487.68760370	15123.92116011	150.77763568	-65.79496224	-87.55992479
15.28000000	9156.21723101	9590.02065323	10401.15479080	10429.81384920	13481.76913173	14469.88263784	15106.93899093	152.32665539	-68.09471409	-95.37711646
15.29000000	9156.25904595	9598.41868234	10401.24479690	10430.24388881	13447.39649309	14448.43987879	15083.41481482	154.14072553	-70.60810622	-102.99469800
15.30000000	9155.48265959	9606.90393556	10400.91059310	10424.80367691	13407.49979097	14424.25703498	15055.90039397	156.11917351	-73.18598882	-109.08922092
15.31000000	9154.21766043	9614.72755521	10400.28367871	10415.69689955	13364.32042054	14398.23181482	15026.94749059	158.16132674	-75.67921208	-112.33723677
15.32000000	9152.79363695	9621.14068358	10399.49555307	10405.12724278	13320.09977692	14371.26192674	14999.10786690	160.16651261	-77.93862622	-111.41529706
15.33000000	9151.53622741	9625.40617265	10398.67632347	10395.27285582	13277.05831780	14344.23778936	14974.90066516	162.03564755	-79.81692207	-105.02458107
15.34000000	9150.61750487	9627.24208690	10397.90198228	10387.31914386	13236.60255720	14317.76642964	14955.57692802	163.73142117	-81.23834554	-92.82367175
15.35000000	9150.01005572	9626.95782801	10397.17822463	10381.16190245	13199.08166751	14292.08673880	14940.74039186	165.29676864	-82.22009510	-75.71485334
15.36000000	9149.67313431	9624.90231772	10396.50604760	10376.61074037	13164.77415718	14267.41300494	14929.88470079	166.77998809	-82.78558141	-54.68352869
15.37000000	9149.56599500	9621.42447777	10395.88644824	10373.47526642	13133.95853470	14243.95951612	14922.50349894	168.22937761	-82.95821511	-30.71510068
15.38000000	9149.64789218	9616.87322988	10395.32042360	10371.56508936	13106.91330852	14221.94056043	14918.09043043	169.69323533	-82.76140685	-4.79497217
15.39000000	9149.87808019	9611.59749579	10394.80897076	10370.68981799	13083.91698712	14201.57042597	14916.13913937	171.21985937	-82.21856728	22.09145398
15.40000000	9150.21581340	9605.94619725	10394.35308678	10370.65906108	13065.24807896	14183.06340080	14916.14326990	172.85754783	-81.35310705	48.95877489
15.41000000	9150.62034618	9600.26825598	10393.95376871	10371.28242741	13051.18509252	14166.63377302	14917.59646611	174.65459884	-80.18843681	74.82158769
15.42000000	9151.05093288	9594.91259372	10393.61201361	10372.36952577	13042.00653626	14152.49583071	14919.99237215	176.65931050	-78.74796720	98.69448953
15.43000000	9151.46682787	9590.22813221	10393.32881855	10373.72996494	13037.99091865	14140.86386196	14922.82463212	178.91998095	-77.05510887	119.59207753
15.44000000	9151.82728552	9586.56379318	10393.10518059	10375.17335369	13039.41674816	14131.95215484	14925.58689016	181.48490828	-75.13327248	136.52894883
15.45000000	9152.09222294	9584.26244643	10392.94243174	10376.51256723	13046.53481237	14125.96692371	14927.77903020	184.40085683	-73.00622431	148.53924668
15.46000000	9152.24732153	9583.43169237	10392.85492531	10377.68746240	13058.51824954	14122.80051657	14929.14350959	187.65496500	-70.71155646	155.41696992
15.47000000	9152.31173146	9583.87350821	10392.87392969	10378.80284976	13073.14029334	14121.93755794	14929.73789706	191.15691503	-68.30482117	157.94319666
15.48000000	9152.30683966	9585.36944584	10393.03184379	10379.97456397	13088.08061946	14122.83542346	14929.64082079	194.81121259	-65.84277102	156.96497318
15.49000000	9152.25403305	9587.70105712	10393.36106647	10381.31843971	13101.01890359	14124.95148881	14928.93090894	198.52236338	-63.38215859	153.32934574
15.50000000	9152.17469857	9590.64989395	10393.89399661	10382.95031167	13109.63482142	14127.74312966	14927.68678969	202.19487310	-60.97973644	147.88336064
15.51000000	9152.09022314	9593.99750822	10394.66303309	10384.98601450	13111.60804862	14130.66772165	14925.98709119	205.73324744	-58.69225715	141.47406414
15.52000000	9152.02199369	9597.52545180	10395.70057480	10387.54138288	13104.61826090	14133.18264047	14923.91044163	209.04199209	-56.57647328	134.94850252
15.53000000	9151.99139716	9601.01527657	10397.03902061	10390.73225150	13086.34513393	14134.74526176	14921.53546916	212.02561275	-54.68913741	129.15372206
15.54000000	9152.01915588	9604.24907786	10398.70620386	10394.66312892	13054.54805731	14134.82309518	14918.94367522	214.58990486	-53.08621200	124.92345116
15.55000000	9152.10015648	9607.03007652	10400.55247254	10398.99822191	13010.08529847	14133.27760911	14916.32825951	216.69080293	-51.79294374	122.57368550
15.56000000	9152.19572405	9609.18893632	10402.19761487	10402.82976957	12957.84067679	14130.48203824	14914.02752171	218.34937386	-50.79467848	121.74786766
15.57000000	9152.26494070	9610.55815505	10403.24601039	10405.21178544	12902.96704604	14126.84381947	14912.38945877	219.59103747	-50.07409543	122.04449235
15.58000000	9152.26688856	9610.97023051	10403.30203863	10405.19828307	12850.61726000	14122.77038970	14911.76206766	220.44121359	-49.61387380	123.06205432
15.59000000	9152.16064976	9610.25766049	10401.97007912	10401.84327600	12805.94417247	14118.66918583	14912.49334533	220.92532204	-49.39669281	124.39904827
15.60000000	9151.90585328	9608.25497683	10398.85840212	10394.21016911	12774.06645624	14114.94646301	14914.92745444	221.06890453	-49.40517287	125.65599213
15.61000000	9151.50443997	9604.95408439	10393.87630415	10382.08897925	12757.45818996	14111.91704313	14919.11189635	220.90693387	-49.61738656	126.58993850
15.62000000	9151.03007225	9600.61364629	10387.44334212	10366.50138092	12754.11068156	14109.74076242	14924.59131088	220.49036925	-50.00369755	127.22327719
15.63000000	9150.56335983	9595.51816527	10380.02849949	10348.58835353	12761.58101408	14108.56244437	14930.86162806	219.87171836	-50.53372276	127.60409997
